<svg version="1" xmlns="http://www.w3.org/2000/svg" width="717.333" height="717.333" viewBox="0 0 538.000000 538.000000"><path d="M271.7 7c-2 3.4-4.4 4.2-2.7.9.7-1.1.9-2.3.6-2.6-.4-.4-128.2 58-129.4 59.1-.5.6-9.2 127.1-9.2 134.2l.1 3.9 3-3.5 3-3.5-1.7 3.5c-1.6 3.5-4.7 7-6 7-.6 0 0-12.7 1.1-25 .1-1.9.6-8.7.9-15 .7-11.7 1.2-19.3 2.1-31 .3-3.6.8-10.3 1.1-15 .3-4.7.7-10.3.8-12.5.2-2.2.7-11.6 1.1-20.8l.8-16.8-19.1-19.2c-17-17-19.3-19-20.6-17.7C95.4 35.1 26 156.9 26 158.5c0 .7 4.6 8.7 10.1 17.7 5.6 8.9 20.9 33.8 34.1 55.3 13.2 21.4 25.5 41.2 27.3 44l3.3 5-.7 11.8c-2.6 41.9 9.2 80.7 34.2 112.5 7.7 9.9 80.2 82.9 92.7 93.4 33.3 28 74.2 41.4 118 38.7 80-5 145.8-70.9 150.9-151.1 2.6-42-9.1-80.8-34.2-112.6-3.3-4.2-24.2-26-46.4-48.3l-40.4-40.6 17.8-6.5c9.8-3.6 42.2-15.4 72.1-26.3 29.8-10.9 54.2-20.1 54.2-20.4 0-.3-15.7-16.3-34.8-35.4l-34.8-34.8-10.9-2c-15.8-2.9-58.7-10.4-82-14.5-22.1-3.8-46.7-8.2-50.4-9-1.3-.3-2-.8-1.7-1.2.8-.7-28.4-30.2-29.9-30.2-.6 0-1.9 1.3-2.8 3zm-8.8 12c-2 3.6-3.9 5.2-3.9 3.3 0-.8 5-7.3 5.6-7.3.3 0-.5 1.8-1.7 4zm-7.5 10.2c-2.1 3.7-4.7 6.9-5.1 6.4-.6-.6 4.4-7.6 5.3-7.6.3 0 .2.6-.2 1.2zM245 43.9c-1.9 3.8-4 6.1-4 4.5 0-.9 5.1-8.4 5.7-8.4.2 0-.6 1.8-1.7 3.9zm-8.4 11.8c-2.2 4.2-4.4 6.9-5 6.2-.5-.5 5.1-8.9 6-8.9.3 0-.2 1.2-1 2.7zm44.8 6.8c-.4.8-1.1 1.5-1.6 1.5-.6 0-.5-.6.2-1.5.7-.8 1.4-1.5 1.6-1.5.2 0 .1.7-.2 1.5zm-55.5 8.9c-1.1 2-2.5 3.6-3.1 3.6-1 0-.5-1 2.6-5.2 2.7-3.9 3.1-2.8.5 1.6zm-8.3 11.4c-.8 1.6-2.3 3.5-3.2 4.3-1.6 1.2-1.7 1.2-.9-.1 1.6-2.8 4.6-7 5.1-7 .2 0-.2 1.3-1 2.8zm46.7.7c-.3.9-.8 1.4-1 1.1-.3-.3-.2-.9.2-1.5.9-1.6 1.5-1.3.8.4zm-55.7 12.3c-1.5 2.9-4.6 6.1-4.6 4.7 0-1 4.9-7.5 5.6-7.5.2 0-.2 1.3-1 2.8zm42.4 4.6c0 .3-.4.8-1 1.1-.5.3-1 .1-1-.4 0-.6.5-1.1 1-1.1.6 0 1 .2 1 .4zm-3.2 4c-.7.8-1.5 1.2-1.7 1.1-.5-.6 1-2.5 2-2.5.5 0 .4.6-.3 1.4zm-49.2 5.7c-1.5 2.2-3 3.8-3.3 3.5-.3-.3.7-2.4 2.2-4.6 3.6-5.3 4.6-4.3 1.1 1.1zm39.8 6.4c-.4.8-1.1 1.5-1.6 1.5-.6 0-.5-.6.2-1.5.7-.8 1.4-1.5 1.6-1.5.2 0 .1.7-.2 1.5zm-48.4 5.4c-1.9 3.8-4 6.1-4 4.4 0-1 4.9-8.3 5.6-8.3.2 0-.5 1.8-1.6 3.9zm-9.1 13.1c-2 3.5-3.9 5.2-3.9 3.4 0-.7 5.1-7.4 5.7-7.4.2 0-.6 1.8-1.8 4zm44.1-1.6c0 .3-.4.8-1 1.1-.5.3-1 .1-1-.4 0-.6.5-1.1 1-1.1.6 0 1 .2 1 .4zm-3.6 4.1c-.4.8-1.1 1.5-1.6 1.5-.6 0-.5-.6.2-1.5.7-.8 1.4-1.5 1.6-1.5.2 0 .1.7-.2 1.5zM171.8 148c-2.1 3.6-3.8 5.1-3.8 3.3 0-.8 4.9-7.3 5.6-7.3.2 0-.6 1.8-1.8 4zm-9.3 12.9c-1.5 3.1-3.5 4.9-3.5 3.3 0-1 3.9-6.2 4.6-6.2.2 0-.2 1.3-1.1 2.9zm-9.1 13.2c-1.1 1.8-2.6 3.5-3.3 3.7-.8.3-.1-1.3 1.5-3.6 3.4-4.7 4.5-4.8 1.8-.1zm-9.5 13.3c-1.1 2-2.5 3.6-3.1 3.6-1 0-.5-1 2.6-5.2 2.7-3.9 3.1-2.8.5 1.6z"/></svg>